<svg width="22" height="22" viewBox="0 0 22 22" fill="none" xmlns="http://www.w3.org/2000/svg">
<path d="M8.21376 3.42546L8.65702 3.96723L8.21376 3.42546ZM10.2551 2.05178L10.4447 2.72561L10.2551 2.05178ZM13.7862 3.42546L14.2295 2.88369V2.88369L13.7862 3.42546ZM11.7449 2.05178L11.5553 2.72561L11.7449 2.05178ZM4.93903 18.2627L4.62123 18.8864L4.93903 18.2627ZM3.4375 14.1625H4.1375H3.4375ZM3.73723 17.0609L3.11353 17.3787L3.73723 17.0609ZM18.2628 17.0609L18.8865 17.3787L18.2628 17.0609ZM17.061 18.2627L17.3788 18.8864L17.061 18.2627ZM18.4661 7.91484L17.7907 8.09853L18.4661 7.91484ZM16.9487 6.01296L16.5055 6.55473V6.55473L16.9487 6.01296ZM18.0514 7.03964L17.4815 7.44611L18.0514 7.03964ZM3.4375 9.41837H2.7375H3.4375ZM3.53387 7.91484L4.20934 8.09853L3.53387 7.91484ZM5.05125 6.01296L5.49452 6.55473L5.05125 6.01296ZM3.94861 7.03964L4.51851 7.44611L3.94861 7.03964ZM17.8625 9.41837V14.1625H19.2625V9.41837H17.8625ZM14.1625 17.8625H7.8375V19.2625H14.1625V17.8625ZM4.1375 14.1625V9.41837H2.7375V14.1625H4.1375ZM5.49452 6.55473L8.65702 3.96723L7.77049 2.88369L4.60799 5.47119L5.49452 6.55473ZM13.343 3.96723L16.5055 6.55473L17.392 5.47119L14.2295 2.88369L13.343 3.96723ZM8.65702 3.96723C9.16132 3.55463 9.51044 3.26956 9.80147 3.06545C10.0853 2.86641 10.2741 2.77363 10.4447 2.72561L10.0655 1.37795C9.68378 1.48536 9.34822 1.67334 8.9976 1.91924C8.6542 2.16008 8.25884 2.48413 7.77049 2.88369L8.65702 3.96723ZM14.2295 2.88369C13.7412 2.48413 13.3458 2.16008 13.0024 1.91924C12.6518 1.67334 12.3162 1.48536 11.9345 1.37795L11.5553 2.72561C11.7259 2.77363 11.9147 2.86641 12.1985 3.06545C12.4896 3.26956 12.8387 3.55463 13.343 3.96723L14.2295 2.88369ZM10.4447 2.72561C10.8079 2.62343 11.1921 2.62343 11.5553 2.72561L11.9345 1.37795C11.3234 1.20598 10.6766 1.20598 10.0655 1.37795L10.4447 2.72561ZM7.8375 17.8625C7.05588 17.8625 6.51176 17.8619 6.08831 17.8273C5.67303 17.7934 5.43582 17.7302 5.25682 17.639L4.62123 18.8864C5.03049 19.095 5.47245 19.1817 5.9743 19.2227C6.46799 19.263 7.07898 19.2625 7.8375 19.2625V17.8625ZM2.7375 14.1625C2.7375 14.921 2.73696 15.532 2.77729 16.0257C2.81829 16.5275 2.905 16.9695 3.11353 17.3787L4.36094 16.7432C4.26973 16.5642 4.20657 16.3269 4.17264 15.9117C4.13804 15.4882 4.1375 14.9441 4.1375 14.1625H2.7375ZM5.25682 17.639C4.87109 17.4425 4.55748 17.1289 4.36094 16.7432L3.11353 17.3787C3.44429 18.0279 3.97207 18.5557 4.62123 18.8864L5.25682 17.639ZM17.8625 14.1625C17.8625 14.9441 17.862 15.4882 17.8274 15.9117C17.7934 16.3269 17.7303 16.5642 17.6391 16.7432L18.8865 17.3787C19.095 16.9695 19.1817 16.5275 19.2227 16.0257C19.263 15.532 19.2625 14.921 19.2625 14.1625H17.8625ZM14.1625 19.2625C14.921 19.2625 15.532 19.263 16.0257 19.2227C16.5276 19.1817 16.9695 19.095 17.3788 18.8864L16.7432 17.639C16.5642 17.7302 16.327 17.7934 15.9117 17.8273C15.4882 17.8619 14.9441 17.8625 14.1625 17.8625V19.2625ZM17.6391 16.7432C17.4425 17.1289 17.1289 17.4425 16.7432 17.639L17.3788 18.8864C18.0279 18.5557 18.5557 18.0279 18.8865 17.3787L17.6391 16.7432ZM19.2625 9.41837C19.2625 8.69063 19.2682 8.19687 19.1416 7.73116L17.7907 8.09853C17.8568 8.34158 17.8625 8.61392 17.8625 9.41837H19.2625ZM16.5055 6.55473C17.1281 7.06414 17.3352 7.24105 17.4815 7.44611L18.6213 6.63318C18.341 6.24025 17.9553 5.93203 17.392 5.47119L16.5055 6.55473ZM19.1416 7.73116C19.0345 7.33726 18.8583 6.96551 18.6213 6.63318L17.4815 7.44611C17.6223 7.64358 17.727 7.86448 17.7907 8.09853L19.1416 7.73116ZM4.1375 9.41837C4.1375 8.61392 4.14325 8.34158 4.20934 8.09853L2.8584 7.73116C2.73175 8.19687 2.7375 8.69063 2.7375 9.41837H4.1375ZM4.60799 5.47119C4.04474 5.93203 3.65896 6.24025 3.37871 6.63318L4.51851 7.44611C4.66476 7.24105 4.87191 7.06414 5.49452 6.55473L4.60799 5.47119ZM4.20934 8.09853C4.27299 7.86448 4.37767 7.64358 4.51851 7.44611L3.37871 6.63318C3.14168 6.96551 2.96552 7.33726 2.8584 7.73116L4.20934 8.09853ZM13.2792 14.6666V18.5625H14.6792V14.6666H13.2792ZM8.72083 18.5625V14.6666H7.32083V18.5625H8.72083ZM11 12.3875C12.2587 12.3875 13.2792 13.4079 13.2792 14.6666H14.6792C14.6792 12.6347 13.0319 10.9875 11 10.9875V12.3875ZM11 10.9875C8.96805 10.9875 7.32083 12.6347 7.32083 14.6666H8.72083C8.72083 13.4079 9.74125 12.3875 11 12.3875V10.9875Z" fill="#1D2939"/>
</svg>
