<svg width="22" height="22" viewBox="0 0 22 22" fill="none" xmlns="http://www.w3.org/2000/svg">
<path d="M16.7655 14.8958H17.6459C19.1647 14.8958 20.3959 13.6646 20.3959 12.1458V8.02083C20.3959 6.50205 19.1647 5.27083 17.6459 5.27083H13.5928C13.1066 5.27083 12.6403 5.07768 12.2964 4.73386L11.5371 3.97447C11.1932 3.63065 10.7269 3.4375 10.2407 3.4375H8.02092C6.50213 3.4375 5.27092 4.66872 5.27092 6.1875V7.10417M1.60425 15.8125V9.85417C1.60425 8.33538 2.83547 7.10417 4.35425 7.10417H6.57402C7.06025 7.10417 7.52657 7.29732 7.87039 7.64114L8.62978 8.40053C8.97359 8.74435 9.43991 8.9375 9.92614 8.9375H13.9792C15.498 8.9375 16.7292 10.1687 16.7292 11.6875V15.8125C16.7292 17.3313 15.498 18.5625 13.9792 18.5625H4.35425C2.83547 18.5625 1.60425 17.3313 1.60425 15.8125Z" stroke="#98A2B3" stroke-width="1.4" stroke-linecap="round" stroke-linejoin="round"/>
</svg>
