<svg width="22" height="22" viewBox="0 0 22 22" fill="none" xmlns="http://www.w3.org/2000/svg">
<path d="M9.62786 3.31084C10.4773 2.8218 11.5227 2.8218 12.3721 3.31084L17.1847 6.08165C18.0371 6.57246 18.5625 7.48121 18.5625 8.46487V13.535C18.5625 14.5187 18.0371 15.4274 17.1846 15.9183L12.3721 18.6891C11.5227 19.1781 10.4773 19.1781 9.62788 18.6891L4.81543 15.9185C3.96292 15.4277 3.4375 14.5189 3.4375 13.5353L3.4375 8.46485C3.4375 7.48119 3.9629 6.57243 4.81537 6.08163L9.62786 3.31084Z" stroke="#98A2B3" stroke-width="1.4" stroke-linejoin="round"/>
<path d="M13.9792 11C13.9792 12.6454 12.6454 13.9792 11 13.9792C9.35468 13.9792 8.02086 12.6454 8.02086 11C8.02086 9.35465 9.35468 8.02083 11 8.02083C12.6454 8.02083 13.9792 9.35465 13.9792 11Z" stroke="#98A2B3" stroke-width="1.4" stroke-linejoin="round"/>
</svg>
