<svg width="40" height="40" viewBox="0 0 40 40" fill="none" xmlns="http://www.w3.org/2000/svg">
<rect x="0.5" y="0.5" width="39" height="39" rx="3.5" fill="black"/>
<path fill-rule="evenodd" clip-rule="evenodd" d="M20.0003 9.382C20.9478 9.382 21.716 8.62497 21.716 7.691C21.716 6.75711 20.9478 6 20.0003 6C19.0527 6 18.2846 6.75711 18.2846 7.691C18.2846 8.62497 19.0527 9.382 20.0003 9.382ZM30.0255 20.4391C30.0255 25.9 25.5359 30.3251 19.9998 30.3251C14.4638 30.3251 9.97412 25.9 9.97412 20.4391C9.97412 14.9783 14.4638 10.5531 19.9998 10.5531C25.5359 10.5531 30.0255 14.9783 30.0255 20.4391ZM12.8687 20.4391C12.8687 24.3175 16.0604 27.4634 19.9998 27.4634C23.9392 27.4634 27.131 24.3175 27.131 20.4391C27.131 16.5608 23.9392 13.4148 19.9998 13.4148C16.0604 13.4148 12.8687 16.5608 12.8687 20.4391ZM20.0139 33.9997C18.9019 33.9997 17.7905 33.8459 16.6823 33.5394C16.1224 33.3847 15.7955 32.8104 15.9521 32.257C16.1087 31.7035 16.6895 31.3803 17.2493 31.5351C18.1747 31.791 19.0955 31.9184 20.0139 31.9184C20.9322 31.9184 21.853 31.791 22.7784 31.5351C23.3382 31.3803 23.919 31.7035 24.0756 32.257C24.2322 32.8104 23.9053 33.3847 23.3455 33.5394C22.2372 33.8459 21.1258 33.9997 20.0139 33.9997Z" fill="white"/>
<rect x="0.5" y="0.5" width="39" height="39" rx="3.5" stroke="black"/>
</svg>
