<svg width="22" height="22" viewBox="0 0 22 22" fill="none" xmlns="http://www.w3.org/2000/svg">
<path d="M15.0925 18.2657L14.5738 18.7358L14.5738 18.7358L15.0925 18.2657ZM12.0869 14.9492L12.6056 14.4791H12.6056L12.0869 14.9492ZM9.91331 14.9492L10.432 15.4192L9.91331 14.9492ZM6.9077 18.2657L6.38901 17.7957H6.38901L6.9077 18.2657ZM11.3004 14.249L11.5298 13.5876L11.5298 13.5876L11.3004 14.249ZM10.6997 14.249L10.9291 14.9103H10.9291L10.6997 14.249ZM4.58273 19.3123L5.10825 18.8499H5.10825L4.58273 19.3123ZM5.37422 19.6176L5.45311 20.3131L5.45311 20.3131L5.37422 19.6176ZM17.4174 19.3123L17.943 19.7747L17.4174 19.3123ZM16.6259 19.6176L16.7048 18.922H16.7048L16.6259 19.6176ZM17.3462 4.02234L16.7225 4.34013V4.34013L17.3462 4.02234ZM16.1444 2.82055L16.4622 2.19684L16.4622 2.19684L16.1444 2.82055ZM4.65398 4.02234L5.27768 4.34013V4.34013L4.65398 4.02234ZM5.85577 2.82055L6.17357 3.44425L5.85577 2.82055ZM16.9459 6.92081V17.2808H18.3459V6.92081H16.9459ZM5.05425 17.2808V6.92081H3.65425V17.2808H5.05425ZM8.75425 3.22081H13.2459V1.82081H8.75425V3.22081ZM15.6112 17.7956L12.6056 14.4791L11.5682 15.4192L14.5738 18.7358L15.6112 17.7956ZM9.39462 14.4791L6.38901 17.7957L7.42639 18.7358L10.432 15.4192L9.39462 14.4791ZM12.6056 14.4791C12.4254 14.2803 12.2612 14.0983 12.1126 13.9598C11.9586 13.8164 11.7724 13.6718 11.5298 13.5876L11.0711 14.9103C11.0499 14.903 11.0687 14.9007 11.1583 14.9842C11.2534 15.0728 11.3717 15.2025 11.5682 15.4192L12.6056 14.4791ZM10.432 15.4192C10.6285 15.2025 10.7468 15.0728 10.8418 14.9842C10.9315 14.9007 10.9502 14.903 10.9291 14.9103L10.4704 13.5876C10.2278 13.6718 10.0416 13.8164 9.88759 13.9598C9.73898 14.0983 9.57481 14.2803 9.39462 14.4791L10.432 15.4192ZM11.5298 13.5876C11.1867 13.4686 10.8135 13.4686 10.4704 13.5876L10.9291 14.9103C10.9751 14.8944 11.0251 14.8944 11.0711 14.9103L11.5298 13.5876ZM3.65425 17.2808C3.65425 17.8577 3.6536 18.3374 3.68545 18.7029C3.71479 19.0397 3.78046 19.4602 4.0572 19.7747L5.10825 18.8499C5.15652 18.9047 5.10794 18.9001 5.08017 18.5814C5.0549 18.2914 5.05425 17.8852 5.05425 17.2808H3.65425ZM6.38901 17.7957C5.98319 18.2435 5.70993 18.544 5.49646 18.7419C5.26182 18.9595 5.22273 18.9303 5.29533 18.922L5.45311 20.3131C5.86938 20.2659 6.20043 19.9984 6.44831 19.7686C6.71736 19.5191 7.039 19.1632 7.42639 18.7358L6.38901 17.7957ZM4.0572 19.7747C4.40647 20.1716 4.92776 20.3727 5.45311 20.3131L5.29534 18.922C5.22493 18.93 5.15506 18.9031 5.10825 18.8499L4.0572 19.7747ZM16.9459 17.2808C16.9459 17.8851 16.9453 18.2914 16.92 18.5814C16.8922 18.9001 16.8436 18.9047 16.8919 18.8499L17.943 19.7747C18.2197 19.4602 18.2854 19.0396 18.3147 18.7029C18.3466 18.3374 18.3459 17.8577 18.3459 17.2808H16.9459ZM14.5738 18.7358C14.9612 19.1632 15.2828 19.5191 15.5518 19.7686C15.7997 19.9984 16.1308 20.2659 16.5471 20.3131L16.7048 18.922C16.7774 18.9303 16.7383 18.9595 16.5037 18.7419C16.2902 18.544 16.017 18.2434 15.6112 17.7956L14.5738 18.7358ZM16.8919 18.8499C16.8451 18.9031 16.7752 18.93 16.7048 18.922L16.5471 20.3131C17.0724 20.3727 17.5937 20.1716 17.943 19.7747L16.8919 18.8499ZM18.3459 6.92081C18.3459 6.16229 18.3465 5.5513 18.3061 5.05762C18.2651 4.55576 18.1784 4.1138 17.9699 3.70455L16.7225 4.34013C16.8137 4.51913 16.8768 4.75634 16.9108 5.17162C16.9454 5.59507 16.9459 6.13919 16.9459 6.92081H18.3459ZM13.2459 3.22081C14.0275 3.22081 14.5717 3.22136 14.9951 3.25595C15.4104 3.28988 15.6476 3.35304 15.8266 3.44425L16.4622 2.19684C16.0529 1.98831 15.611 1.90161 15.1091 1.8606C14.6154 1.82027 14.0044 1.82081 13.2459 1.82081V3.22081ZM17.9699 3.70455C17.6391 3.05539 17.1113 2.5276 16.4622 2.19684L15.8266 3.44425C16.2123 3.64079 16.5259 3.9544 16.7225 4.34013L17.9699 3.70455ZM5.05425 6.92081C5.05425 6.13919 5.05479 5.59507 5.08939 5.17162C5.12332 4.75634 5.18648 4.51913 5.27768 4.34013L4.03028 3.70455C3.82175 4.1138 3.73504 4.55576 3.69404 5.05762C3.6537 5.5513 3.65425 6.16229 3.65425 6.92081H5.05425ZM8.75425 1.82081C7.99573 1.82081 7.38474 1.82027 6.89105 1.8606C6.38919 1.90161 5.94724 1.98831 5.53798 2.19684L6.17357 3.44425C6.35257 3.35304 6.58978 3.28988 7.00506 3.25595C7.42851 3.22136 7.97263 3.22081 8.75425 3.22081V1.82081ZM5.27768 4.34013C5.47423 3.9544 5.78784 3.64079 6.17357 3.44425L5.53798 2.19684C4.88882 2.5276 4.36104 3.05539 4.03028 3.70455L5.27768 4.34013Z" fill="#98A2B3"/>
</svg>
